<?xml version="1.0" encoding="UTF-8"?>
<svg width="27px" height="34px" viewBox="0 0 27 34" version="1.1" xmlns="http://www.w3.org/2000/svg" xmlns:xlink="http://www.w3.org/1999/xlink">
    <!-- Generator: sketchtool 56.2 (101010) - https://sketch.com -->
    <title>ACBA1AB3-E2D9-42B3-B4C6-6147F14994A8</title>
    <desc>Created with sketchtool.</desc>
    <g id="Homepage" stroke="none" stroke-width="1" fill="none" fill-rule="evenodd">
        <g id="TCLifestyle---Homepage---Mobile" transform="translate(-89.000000, -1747.000000)" fill="#F2AE44" fill-rule="nonzero">
            <g id="Footer" transform="translate(-3.000000, 1466.000000)">
                <g id="Group-13" transform="translate(87.581948, 156.000000)">
                    <g id="Group-11" transform="translate(5.000000, 117.000000)">
                        <path d="M13,42 C12.7972136,42 12.6027486,41.9203276 12.4593786,41.7786262 C11.9501087,41.2761908 0.000617702733,29.3711156 0.000617702733,20.8448242 C-0.0332332734,17.4281831 1.32546768,14.1417378 3.77070129,11.7256919 C6.21593489,9.3096461 9.54208316,7.96716342 13,8.00061033 C16.4579168,7.96716342 19.7840651,9.3096461 22.2292987,11.7256919 C24.6745323,14.1417378 26.0332333,17.4281831 25.9993823,20.8448242 C25.9993823,29.3711156 14.0498913,41.2761908 13.5406214,41.7786262 C13.3972514,41.9203276 13.2027864,42 13,42 Z M13,25.3780762 C15.533892,25.3780762 17.5880173,23.3484701 17.5880173,20.8448242 C17.5880173,18.3411783 15.533892,16.3115722 13,16.3115722 C10.466108,16.3115722 8.41198272,18.3411783 8.41198272,20.8448242 C8.41198272,23.3484701 10.466108,25.3780762 13,25.3780762 Z" id="Path-2"></path>
                    </g>
                </g>
            </g>
        </g>
    </g>
</svg>